<?xml version="1.0" encoding="UTF-8" standalone="no"?>
<svg width="48" height="48" viewBox="0 0 48 48" xmlns="http://www.w3.org/2000/svg" xmlns:xlink="http://www.w3.org/1999/xlink">
	<defs>
		<path id="base" d="m 6.016,34.75 c -0.222,0 -0.305,0.07 -1.547,1.313 l -1.311,1.312 -1.08,0 -1.078,0 0,2.188 0,2.187 1.078,0.002 1.078,0.002 1.344,1.307 c 1.18,1.148 1.368,1.308 1.547,1.311 l 0.203,0.004 0,-4.813 0,-4.813 -0.234,0 z m 1.109,-29.375 0,2.188 0,2.187 0.432,0 0.434,0 0.223,-0.307 c 0.86,-1.171 0.86,-2.591 0,-3.762 l -0.223,-0.307 -0.434,0 -0.432,0 z m 1.75,-1.75 0,0.723 c 0,0.705 0.004,0.73 0.191,1.002 0.902,1.312 0.902,3.114 0,4.426 -0.187,0.272 -0.191,0.297 -0.191,1.002 l 0,0.723 0.525,0 0.523,0 0.344,-0.453 C 10.944,10.155 11.311,9.257 11.437,8.176 11.61,6.699 11.12,5.071 10.156,3.918 l -0.246,-0.293 -0.518,0 -0.518,0 z m -2.859,-0.875 c -0.222,0 -0.305,0.07 -1.547,1.313 l -1.311,1.312 -1.08,0 -1.078,0 0,2.188 0,2.187 1.078,0.002 1.078,0.002 L 4.5,11.061 c 1.18,1.148 1.368,1.308 1.547,1.311 l 0.203,0.004 0,-4.813 0,-4.813 -0.234,0 z m 4.609,-0.875 0,0.563 0,0.564 0.4,0.525 C 12.848,5.916 12.848,9.209 11.025,11.598 l -0.4,0.525 0,0.564 0,0.563 0.652,0 0.65,0 0.277,-0.328 C 12.853,12.155 13.42,11.121 13.736,10.125 14.602,7.402 14.009,4.337 12.205,2.203 l -0.277,-0.328 -0.65,0 -0.652,0 z M 6.016,18.75 c -0.222,0 -0.305,0.07 -1.547,1.313 l -1.311,1.312 -1.08,0 -1.078,0 0,2.188 0,2.187 1.078,0.002 1.078,0.002 1.344,1.307 c 1.18,1.148 1.368,1.308 1.547,1.311 l 0.203,0.004 0,-4.813 0,-4.813 -0.234,0 z m 0.984,1.25 0,1.418 2.084,2.082 -2.084,2.082 0,1.418 1.414,0 2.086,-2.086 2.088,2.086 1.412,0 0,-1.414 -2.086,-2.086 2.086,-2.086 0,-1.414 -1.412,0 -2.088,2.086 -2.086,-2.086 -1.414,0 z m 3.403,14.77 q -0.336,0 -0.732,0.084 -0.384,0.084 -0.852,0.24 -0.444,0.144 -0.816,0.3 -0.36,0.144 -0.636,0.288 -0.096,0.06 -0.156,0.192 -0.048,0.132 -0.012,0.252 l 0.444,1.368 q 0.06,0.18 0.216,0.24 0.156,0.048 0.312,-0.048 0.42,-0.276 1.092,-0.552 0.324,-0.132 0.588,-0.192 0.264,-0.072 0.48,-0.072 0.276,0 0.444,0.216 0.204,0.228 0.204,0.48 0,0.144 -0.084,0.276 -0.084,0.132 -0.216,0.252 -0.288,0.264 -0.792,0.612 -0.516,0.432 -0.756,0.84 -0.228,0.396 -0.228,0.852 l 0,0.444 q 0,0.144 0.108,0.252 0.12,0.108 0.264,0.108 l 1.668,0 q 0.132,0 0.228,-0.108 0.108,-0.108 0.108,-0.24 l 0.024,-0.264 q 0.012,-0.108 0.048,-0.204 0.036,-0.096 0.132,-0.204 0.096,-0.12 0.264,-0.252 0.168,-0.132 0.42,-0.312 l -0.024,0.024 q 0.276,-0.168 0.516,-0.384 0.24,-0.216 0.48,-0.48 0.504,-0.588 0.504,-1.464 0,-1.044 -0.888,-1.8 -0.42,-0.36 -0.996,-0.552 -0.576,-0.192 -1.344,-0.192 l -0.012,0 z m -1.212,6.84 q -0.144,0 -0.252,0.108 -0.108,0.108 -0.108,0.264 l 0,1.884 q 0,0.144 0.108,0.252 0.12,0.108 0.264,0.108 l 1.812,0 q 0.144,0 0.24,-0.108 0.108,-0.108 0.108,-0.252 l 0,-1.884 q 0,-0.156 -0.108,-0.264 -0.108,-0.108 -0.252,-0.108 l -1.812,0 z" />
		<path id="shadow" d="m 6.016,34.75 c -0.222,0 -0.305,0.07 -1.547,1.313 l -1.311,1.312 -1.08,0 -1.078,0 0,1 1.078,0 1.08,0 1.311,-1.312 c 1.242,-1.243 1.324,-1.313 1.547,-1.313 l 0.234,0 0,-1 -0.234,0 z m 0,-16 c -0.222,0 -0.305,0.07 -1.547,1.312 l -1.311,1.312 -1.08,0 -1.078,0 0,1 1.078,0 1.08,0 L 4.469,21.062 C 5.711,19.82 5.793,19.75 6.016,19.75 l 0.234,0 0,-1 -0.234,0 z m 6.398,5.25 -0.5,0.5 2.086,2.086 0,-1 -1.586,-1.586 z m -3.83,0 -1.584,1.582 0,1 2.084,-2.082 -0.5,-0.5 z m -1.584,-4 0,1 1.414,0 2.086,2.086 2.088,-2.086 1.412,0 0,-1 -1.412,0 -2.088,2.086 -2.086,-2.086 -1.414,0 z m 3.625,-18.125 0,0.563 0,0.437 0.652,0 0.65,0 0.277,0.328 C 13.357,4.565 14.007,6.308 14.107,8.098 14.237,5.967 13.571,3.818 12.205,2.203 l -0.277,-0.328 -0.65,0 -0.652,0 z m -4.609,0.875 c -0.222,0 -0.305,0.07 -1.547,1.312 l -1.311,1.312 -1.08,0 -1.078,0 0,1 1.078,0 1.08,0 1.311,-1.312 C 5.711,3.82 5.793,3.75 6.016,3.75 l 0.234,0 0,-1 -0.234,0 z m 2.859,0.875 0,0.723 c 0,0.147 0.008,0.181 0.01,0.277 l 0.508,0 0.518,0 0.246,0.293 C 10.879,5.782 11.335,6.913 11.445,8.047 11.576,6.605 11.092,5.038 10.156,3.918 l -0.246,-0.293 -0.518,0 -0.518,0 z m -1.75,1.75 0,1 0.432,0 0.434,0 0.223,0.307 c 0.319,0.434 0.517,0.903 0.6,1.381 0.14,-0.81 -0.059,-1.644 -0.6,-2.381 l -0.223,-0.307 -0.434,0 -0.432,0 z m 2.582,2.687 c -0.076,0.607 -0.286,1.198 -0.641,1.713 -0.187,0.272 -0.191,0.297 -0.191,1.002 l 0,0.723 0.01,0 c 0.008,-0.365 0.034,-0.51 0.182,-0.725 C 9.615,9.979 9.825,9.001 9.707,8.062 Z m 2.645,0 C 12.257,9.313 11.83,10.544 11.025,11.598 l -0.4,0.525 0,0.564 0,0.436 0.4,-0.525 C 12.044,11.263 12.471,9.646 12.352,8.062 Z M 10.402,34.77 c -0.224,0 -0.466,0.028 -0.73,0.084 -0.256,0.056 -0.542,0.136 -0.854,0.24 -0.296,0.096 -0.568,0.195 -0.816,0.299 -0.24,0.096 -0.451,0.193 -0.635,0.289 -0.064,0.04 -0.116,0.103 -0.156,0.191 -0.032,0.088 -0.036,0.172 -0.012,0.252 l 0.178,0.553 c 0.182,-0.095 0.389,-0.189 0.625,-0.283 0.248,-0.104 0.52,-0.205 0.816,-0.301 0.312,-0.104 0.598,-0.184 0.854,-0.24 0.264,-0.056 0.506,-0.084 0.73,-0.084 l 0.012,0 c 0.512,0 0.962,0.065 1.346,0.193 0.384,0.128 0.716,0.311 0.996,0.551 0.448,0.381 0.725,0.819 0.834,1.311 0.032,-0.162 0.053,-0.33 0.053,-0.51 0,-0.696 -0.295,-1.297 -0.887,-1.801 -0.28,-0.24 -0.612,-0.425 -0.996,-0.553 -0.384,-0.128 -0.834,-0.191 -1.346,-0.191 l -0.012,0 z m 0.32,3.273 c -0.016,0.016 -0.025,0.035 -0.043,0.051 -0.192,0.176 -0.457,0.379 -0.793,0.611 -0.344,0.288 -0.596,0.568 -0.756,0.84 -0.152,0.264 -0.229,0.55 -0.229,0.854 l 0,0.443 c 0,0.062 0.021,0.116 0.051,0.168 0.038,-0.16 0.093,-0.315 0.178,-0.463 0.16,-0.272 0.412,-0.554 0.756,-0.842 0.336,-0.232 0.601,-0.435 0.793,-0.611 0.088,-0.08 0.159,-0.164 0.215,-0.252 0.056,-0.088 0.084,-0.179 0.084,-0.275 0,-0.168 -0.067,-0.328 -0.203,-0.48 -0.015,-0.019 -0.036,-0.026 -0.053,-0.043 z m -1.531,3.566 c -0.096,0 -0.18,0.036 -0.252,0.107 -0.072,0.072 -0.109,0.162 -0.109,0.266 l 0,1 c 0,-0.104 0.037,-0.192 0.109,-0.264 0.072,-0.072 0.156,-0.109 0.252,-0.109 l 1.811,0 c 0.096,0 0.182,0.037 0.254,0.109 0.072,0.072 0.107,0.16 0.107,0.264 l 0,-1 c 0,-0.104 -0.035,-0.194 -0.107,-0.266 -0.072,-0.072 -0.158,-0.107 -0.254,-0.107 l -1.811,0 z" />
	</defs>
	<use xlink:href="#base" style="fill:ButtonText;fill-opacity:0.8" />
	<use xlink:href="#shadow" style="fill:ButtonText;fill-opacity:0.8" />
	<use xlink:href="#base" style="fill:#333" transform="translate(16)" />
	<use xlink:href="#shadow" style="fill:#333" transform="translate(16)" />
	<use xlink:href="#base" style="fill:#fff;fill-opacity:0.8" transform="translate(32)" />
	<use xlink:href="#shadow" style="fill:#fff;fill-opacity:0.8" transform="translate(32)" />
</svg>
