<?xml version="1.0" encoding="UTF-8" standalone="no"?>
<svg width="48" height="48" viewBox="0 0 48 48" xmlns="http://www.w3.org/2000/svg">
	<defs>
		<path id="base" d="m 6.016,34.75 c -0.222,0 -0.305,0.07 -1.547,1.313 l -1.311,1.312 -1.08,0 -1.078,0 0,2.188 0,2.187 1.078,0.002 1.078,0.002 1.344,1.307 c 1.18,1.148 1.368,1.308 1.547,1.311 l 0.203,0.004 0,-4.813 0,-4.813 -0.234,0 z m 1.109,-29.375 0,2.188 0,2.187 0.432,0 0.434,0 0.223,-0.307 c 0.86,-1.171 0.86,-2.591 0,-3.762 l -0.223,-0.307 -0.434,0 -0.432,0 z m 1.75,-1.75 0,0.723 c 0,0.705 0.004,0.73 0.191,1.002 0.902,1.312 0.902,3.114 0,4.426 -0.187,0.272 -0.191,0.297 -0.191,1.002 l 0,0.723 0.525,0 0.523,0 0.344,-0.453 C 10.944,10.155 11.311,9.257 11.437,8.176 11.61,6.699 11.12,5.071 10.156,3.918 l -0.246,-0.293 -0.518,0 -0.518,0 z m -2.859,-0.875 c -0.222,0 -0.305,0.07 -1.547,1.313 l -1.311,1.312 -1.08,0 -1.078,0 0,2.188 0,2.187 1.078,0.002 1.078,0.002 L 4.5,11.061 c 1.18,1.148 1.368,1.308 1.547,1.311 l 0.203,0.004 0,-4.813 0,-4.813 -0.234,0 z m 4.609,-0.875 0,0.563 0,0.564 0.4,0.525 C 12.848,5.916 12.848,9.209 11.025,11.598 l -0.4,0.525 0,0.564 0,0.563 0.652,0 0.65,0 0.277,-0.328 C 12.853,12.155 13.42,11.121 13.736,10.125 14.602,7.402 14.009,4.337 12.205,2.203 l -0.277,-0.328 -0.65,0 -0.652,0 z M 6.016,18.75 c -0.222,0 -0.305,0.07 -1.547,1.313 l -1.311,1.312 -1.08,0 -1.078,0 0,2.188 0,2.187 1.078,0.002 1.078,0.002 1.344,1.307 c 1.18,1.148 1.368,1.308 1.547,1.311 l 0.203,0.004 0,-4.813 0,-4.813 -0.234,0 z m 0.984,1.25 0,1.418 2.084,2.082 -2.084,2.082 0,1.418 1.414,0 2.086,-2.086 2.088,2.086 1.412,0 0,-1.414 -2.086,-2.086 2.086,-2.086 0,-1.414 -1.412,0 -2.088,2.086 -2.086,-2.086 -1.414,0 z m 3.403,14.77 q -0.336,0 -0.732,0.084 -0.384,0.084 -0.852,0.24 -0.444,0.144 -0.816,0.3 -0.36,0.144 -0.636,0.288 -0.096,0.06 -0.156,0.192 -0.048,0.132 -0.012,0.252 l 0.444,1.368 q 0.06,0.18 0.216,0.24 0.156,0.048 0.312,-0.048 0.42,-0.276 1.092,-0.552 0.324,-0.132 0.588,-0.192 0.264,-0.072 0.48,-0.072 0.276,0 0.444,0.216 0.204,0.228 0.204,0.48 0,0.144 -0.084,0.276 -0.084,0.132 -0.216,0.252 -0.288,0.264 -0.792,0.612 -0.516,0.432 -0.756,0.84 -0.228,0.396 -0.228,0.852 l 0,0.444 q 0,0.144 0.108,0.252 0.12,0.108 0.264,0.108 l 1.668,0 q 0.132,0 0.228,-0.108 0.108,-0.108 0.108,-0.24 l 0.024,-0.264 q 0.012,-0.108 0.048,-0.204 0.036,-0.096 0.132,-0.204 0.096,-0.12 0.264,-0.252 0.168,-0.132 0.42,-0.312 l -0.024,0.024 q 0.276,-0.168 0.516,-0.384 0.24,-0.216 0.48,-0.48 0.504,-0.588 0.504,-1.464 0,-1.044 -0.888,-1.8 -0.42,-0.36 -0.996,-0.552 -0.576,-0.192 -1.344,-0.192 l -0.012,0 z m -1.212,6.84 q -0.144,0 -0.252,0.108 -0.108,0.108 -0.108,0.264 l 0,1.884 q 0,0.144 0.108,0.252 0.12,0.108 0.264,0.108 l 1.812,0 q 0.144,0 0.24,-0.108 0.108,-0.108 0.108,-0.252 l 0,-1.884 q 0,-0.156 -0.108,-0.264 -0.108,-0.108 -0.252,-0.108 l -1.812,0 z" />
	</defs>
</svg>
