<?xml version="1.0" encoding="UTF-8" standalone="no"?>
<svg xmlns="http://www.w3.org/2000/svg" width="32" height="48" viewBox="0 0 8.4666666 12.7">
	<path style="fill:ButtonText;fill-opacity:0.8" d="m 1.5916341,9.1942667 c -0.058867,0 -0.080687,0.0184 -0.4092773,0.34727 l -0.3467489,0.34726 -0.28577066,0 -0.28525391,0 0,0.5787803 0,0.57877 0.28525391,5.21e-4 0.2852539,5.21e-4 0.35553386,0.345708 c 0.3122203,0.30385 0.3620813,0.34605 0.4092773,0.34675 l 0.053744,0.001 0,-1.27331 0,-1.2733103 -0.062012,0 z m 0.293522,-7.7721367 0,0.57878 0,0.57877 0.114205,0 0.1147216,0 0.058911,-0.0811 c 0.227453,-0.30986 0.227453,-0.68544 0,-0.99529 l -0.058911,-0.0811 -0.1147216,0 -0.114205,0 z m 0.463021,-0.46302002 0,0.19120002 c 0,0.18651 0.00116,0.1932 0.050643,0.2651 0.2387863,0.34706 0.2387863,0.82393 0,1.17099 -0.049484,0.0719 -0.050643,0.0786 -0.050643,0.2651 l 0,0.1912 0.1390096,0 0.1384927,0 0.09095,-0.11988 C 2.8955753,2.68695 2.9926732,2.44934 3.0261713,2.16317 3.0719083,1.77245 2.9421853,1.34171 2.687174,1.03663 l -0.065112,-0.0775 -0.1369426,0 -0.1369424,0 z m -0.756543,-0.2315099 c -0.058867,0 -0.080687,0.0184 -0.4092773,0.34726992 l -0.3467489,0.34726 -0.28577066,0 -0.28525391,0 0,0.57878 0,0.57877 0.28525391,5.212e-4 0.2852539,5.212e-4 L 1.190625,2.92643 c 0.3122203,0.3038499 0.3620813,0.3460499 0.4092773,0.34675 l 0.053744,0.00101 0,-1.2733101 0,-1.27331002 -0.062012,0 z m 1.2195637,-0.23151 0,0.14883 0,0.1493399 0.1059369,0.13901 C 3.3994098,1.56535 3.3994098,2.43646 2.9171347,3.06854 l -0.1059369,0.1390101 0,0.1493498 0,0.14883 0.1725994,0 0.1720824,0 0.073381,-0.0868 C 3.400811,3.2160099 3.5506168,2.94253 3.6344037,2.67892 3.8634016,1.95844 3.7065746,1.14751 3.2292605,0.58293008 l -0.073381,-0.08684 -0.1720824,0 -0.1725994,0 z M 1.5916341,4.9609335 c -0.058867,0 -0.080687,0.0184 -0.4092773,0.3472699 l -0.34674891,0.34726 -0.28577066,0 -0.2852539,0 0,0.5787803 0,0.57877 0.2852539,5.21e-4 0.28525391,5.21e-4 0.35553386,0.345708 c 0.3122203,0.30385 0.3620813,0.34605 0.4092773,0.34675 l 0.053744,10e-4 0,-1.27331 0,-1.2733102 -0.062012,0 z m 0.2604492,0.3307332 0,0.3751709 0.5513875,0.5508711 -0.5513875,0.55087 0,0.375171 0.3741374,0 0.5519043,-0.551904 0.5524211,0.551904 0.3736205,0 0,-0.374137 -0.5519044,-0.551904 0.5519044,-0.5519046 0,-0.3741374 -0.3736205,0 -0.5524211,0.551904 -0.5519043,-0.551904 -0.3741374,0 z m 0.9003506,3.907777 q -0.0889,0 -0.193675,0.02223 -0.1016,0.02222 -0.225425,0.0635 -0.117475,0.0381 -0.2159,0.07938 -0.09525,0.0381 -0.168275,0.0762 -0.0254,0.01587 -0.041275,0.0508 -0.0127,0.03493 -0.00318,0.06668 l 0.117475,0.36195 q 0.015875,0.04763 0.05715,0.0635 0.041275,0.0127 0.08255,-0.0127 0.111125,-0.07302 0.288925,-0.14605 0.085725,-0.03492 0.155575,-0.0508 0.06985,-0.01905 0.127,-0.01905 0.073025,0 0.117475,0.05715 0.053975,0.06032 0.053975,0.127 0,0.0381 -0.022225,0.07303 -0.022225,0.03492 -0.05715,0.06668 -0.0762,0.06985 -0.20955,0.161925 -0.136525,0.1143 -0.200025,0.22225 -0.060325,0.104775 -0.060325,0.225425 l 0,0.117475 q 0,0.0381 0.028575,0.06668 0.03175,0.02858 0.06985,0.02858 l 0.441325,0 q 0.034925,0 0.060325,-0.02858 0.028575,-0.02858 0.028575,-0.0635 l 0.00635,-0.06985 q 0.00318,-0.02858 0.0127,-0.05397 0.00953,-0.0254 0.034925,-0.05398 0.0254,-0.03175 0.06985,-0.06668 0.04445,-0.03492 0.111125,-0.08255 l -0.00635,0.0063 q 0.073025,-0.04445 0.136525,-0.1016 0.0635,-0.05715 0.1269999,-0.127 0.13335,-0.155575 0.13335,-0.3873513 0,-0.276225 -0.2349499,-0.47625 -0.111125,-0.09525 -0.263525,-0.14605 -0.1524,-0.0508 -0.3556,-0.0508 l -0.00317,0 z m -0.320675,1.8097503 q -0.0381,0 -0.066675,0.02858 -0.028575,0.02858 -0.028575,0.06985 l 0,0.498475 q 0,0.0381 0.028575,0.06668 0.03175,0.02858 0.06985,0.02858 l 0.479425,0 q 0.0381,0 0.0635,-0.02858 0.028575,-0.02858 0.028575,-0.06668 l 0,-0.498475 q 0,-0.04127 -0.028575,-0.06985 -0.028575,-0.02858 -0.066675,-0.02858 l -0.479425,0 z" />
	<path style="fill:ButtonText;fill-opacity:0.8" d="m 1.5916341,9.1942697 c -0.058867,0 -0.080687,0.0184 -0.4092773,0.347266 l -0.3467489,0.347265 -0.28577066,0 -0.28525391,0 0,0.2645833 0.28525391,0 0.28577066,0 0.3467489,-0.3472653 c 0.3285902,-0.32887 0.3504103,-0.347266 0.4092773,-0.347266 l 0.062012,0 0,-0.264583 -0.062012,0 z m 0,-4.2333333 c -0.058867,0 -0.080687,0.018396 -0.4092773,0.3472656 l -0.34674891,0.3472656 -0.28577066,0 -0.2852539,0 0,0.2645831 0.2852539,0 0.28577066,0 L 1.1823568,5.5727853 C 1.510947,5.2439153 1.5327671,5.2255197 1.5916341,5.2255197 l 0.062012,0 0,-0.2645833 -0.062012,0 z m 1.6929198,1.3890633 -0.1322917,0.132292 0.5519044,0.551904 0,-0.264583 -0.4196127,-0.419613 z m -1.0133747,0 -0.4190959,0.418579 0,0.264584 0.5513875,-0.550871 -0.1322916,-0.132292 z m -0.4190959,-1.058333 0,0.2645833 0.3741374,0 0.5519043,0.5519047 0.5524211,-0.5519047 0.3736205,0 0,-0.2645833 -0.3736205,0 -0.5524211,0.551904 -0.5519043,-0.551904 -0.3741374,0 z m 0.9591146,-4.79557672 0,0.1488307 0,0.1157552 0.1725993,0 0.1720824,0 0.073381,0.086816 C 3.5339896,1.2079344 3.7061137,1.6688835 3.7325887,2.1425036 3.7669049,1.5788907 3.5905792,1.0102866 3.2292602,0.58290898 l -0.073381,-0.086819 -0.1720824,0 -0.1725993,0 z m -1.2195638,0.231513 c -0.058867,0 -0.080687,0.018396 -0.4092773,0.34726562 l -0.3467489,0.3472656 -0.28577066,0 -0.28525391,0 0,0.2645833 0.28525391,0 0.28577066,0 0.3467489,-0.3472656 C 1.510947,1.0105819 1.5327671,0.99218628 1.5916341,0.99218628 l 0.062012,0 0,-0.2645833 -0.062012,0 z m 0.756543,0.2315104 0,0.19120282 c 0,0.038943 0.00205,0.047886 0.00258,0.073381 l 0.1343588,0 0.1369425,0 0.065112,0.077515 C 2.8783251,1.5298922 2.9990089,1.8289568 3.0282388,2.1290678 3.0629032,1.7474783 2.9348549,1.3329376 2.6871745,1.036628 l -0.065112,-0.077515 -0.1369425,0 -0.1369425,0 z m -0.4630209,0.46302082 0,0.2645833 0.1142049,0 0.1147217,0 0.058911,0.081132 c 0.084367,0.1149287 0.1368664,0.2390454 0.1586468,0.3653524 0.03694,-0.2142206 -0.01556,-0.4350145 -0.1586467,-0.6299358 l -0.058911,-0.081132 -0.1147217,0 -0.1142049,0 z m 0.6831624,0.7110677 c -0.020135,0.1605679 -0.075748,0.3169415 -0.1694987,0.4532023 -0.049484,0.0719 -0.050643,0.0786 -0.050643,0.2651001 l 0,0.1912028 0.00258,0 c 0.00201,-0.096603 0.00891,-0.1348322 0.048059,-0.1917195 C 2.5438553,2.6401883 2.5994681,2.3816051 2.5683186,2.1332019 Z m 0.6996988,0 C 3.2429854,2.4640539 3.1299004,2.78969 2.9171347,3.0685452 l -0.1059368,0.1390096 0,0.1493449 0,0.1152385 0.1059368,-0.1390097 C 3.1866438,2.979904 3.2997275,2.5522903 3.2680174,2.1332019 Z M 2.7522868,9.1994387 c -0.059267,0 -0.1234199,0.0074 -0.1932699,0.02222 -0.067733,0.01482 -0.143276,0.03604 -0.225826,0.06356 -0.078317,0.0254 -0.1503908,0.05155 -0.2160075,0.07906 -0.0635,0.0254 -0.1192651,0.05108 -0.1679484,0.07648 -0.016933,0.01058 -0.030758,0.02736 -0.041341,0.05064 -0.00847,0.02328 -0.00945,0.0455 -0.0031,0.06666 l 0.047026,0.146244 c 0.04816,-0.02501 0.1028223,-0.04991 0.1653646,-0.07493 0.065617,-0.02752 0.1376908,-0.05418 0.2160075,-0.07958 0.08255,-0.02752 0.1580927,-0.04874 0.225826,-0.06356 0.06985,-0.01482 0.1340032,-0.02222 0.1932699,-0.02222 l 0.0031,0 c 0.1354667,0 0.2544508,0.01729 0.3560508,0.05116 0.1016,0.03387 0.1894663,0.08223 0.2635497,0.145727 0.1185415,0.100921 0.1919245,0.216675 0.2206585,0.3467493 0.00847,-0.04285 0.013952,-0.08719 0.013952,-0.1348753 0,-0.18415 -0.077978,-0.343107 -0.234611,-0.476457 -0.074084,-0.0635 -0.16195,-0.112378 -0.26355,-0.146244 -0.1016,-0.03387 -0.2205841,-0.05064 -0.3560508,-0.05064 l -0.0031,0 z m 0.084749,0.8660963 c -0.00434,0.0043 -0.00669,0.0092 -0.011369,0.01344 -0.0508,0.04657 -0.1209064,0.100364 -0.2098064,0.161747 -0.091017,0.0762 -0.1576545,0.150242 -0.1999878,0.222209 -0.040217,0.06985 -0.060462,0.145393 -0.060461,0.225826 l 0,0.117306 c 0,0.01631 0.00558,0.03075 0.013436,0.04444 0.00995,-0.04237 0.02452,-0.08338 0.047026,-0.122473 0.042333,-0.07197 0.1089711,-0.146525 0.1999878,-0.222725 0.0889,-0.06138 0.1590064,-0.115181 0.2098064,-0.161747 0.023283,-0.02117 0.042027,-0.04338 0.056844,-0.06666 0.014817,-0.02328 0.022221,-0.04746 0.022221,-0.07286 0,-0.04445 -0.01776,-0.08691 -0.053743,-0.127124 -0.00397,-0.0051 -0.00963,-0.0069 -0.013953,-0.01137 z m -0.4051431,0.943612 c -0.0254,0 -0.047613,0.0094 -0.066663,0.02842 -0.01905,0.01905 -0.028939,0.04276 -0.028939,0.07028 l 0,0.264583 c 0,-0.02752 0.00989,-0.05071 0.028939,-0.06976 0.01905,-0.01905 0.041263,-0.02894 0.066663,-0.02894 l 0.4790405,0 c 0.0254,0 0.048129,0.0099 0.067179,0.02894 0.01905,0.01905 0.028422,0.04225 0.028422,0.06976 l 0,-0.264583 c 0,-0.02752 -0.00937,-0.05123 -0.028422,-0.07028 -0.01905,-0.01905 -0.041779,-0.02842 -0.067179,-0.02842 l -0.4790405,0 z" />
	<path style="fill:#fff;fill-opacity:0.8" d="m 5.8249675,9.1942667 c -0.058867,0 -0.080687,0.0184 -0.4092773,0.34727 l -0.3467489,0.34726 -0.2857707,0 -0.2852539,0 0,0.5787803 0,0.57877 0.2852539,5.21e-4 0.2852539,5.21e-4 0.3555339,0.345708 c 0.3122203,0.30385 0.3620813,0.34605 0.4092773,0.34675 l 0.053744,0.001 0,-1.27331 0,-1.2733103 -0.062012,0 z m 0.2604492,-3.9026 0,0.3751709 0.5513875,0.5508711 -0.5513875,0.55087 0,0.375171 0.3741374,0 0.5519043,-0.551904 0.5524211,0.551904 0.3736205,0 0,-0.374137 L 7.3855956,6.2177087 7.9375,5.6658041 l 0,-0.3741374 -0.3736205,0 -0.5524211,0.551904 -0.5519043,-0.551904 -0.3741374,0 z M 5.8249675,4.9609335 c -0.058867,0 -0.080687,0.0184 -0.4092773,0.3472699 l -0.3467489,0.34726 -0.2857707,0 -0.2852539,0 0,0.5787803 0,0.57877 0.2852539,5.21e-4 0.2852539,5.21e-4 0.3555339,0.345708 c 0.3122203,0.30385 0.3620813,0.34605 0.4092773,0.34675 l 0.053744,10e-4 0,-1.27331 0,-1.2733102 -0.062012,0 z m 1.2195637,-4.46484342 0,0.14883 0,0.1493399 0.1059369,0.13901 C 7.6327432,1.56535 7.6327432,2.43646 7.1504681,3.06854 l -0.1059369,0.1390101 0,0.1493498 0,0.14883 0.1725994,0 0.1720824,0 0.073381,-0.0868 C 7.6341444,3.2160099 7.7839502,2.94253 7.8677371,2.67892 8.096735,1.95844 7.939908,1.14751 7.4625939,0.58293008 l -0.073381,-0.08684 -0.1720824,0 -0.1725994,0 z m -1.2195637,0.23151 c -0.058867,0 -0.080687,0.0184 -0.4092773,0.34726992 l -0.3467489,0.34726 -0.2857707,0 -0.2852539,0 0,0.57878 0,0.57877 0.2852539,5.212e-4 0.2852539,5.212e-4 0.3555339,0.3457076 c 0.3122203,0.3038499 0.3620813,0.3460499 0.4092773,0.34675 l 0.053744,0.00101 0,-1.2733101 0,-1.27331002 -0.062012,0 z m 0.756543,0.2315099 0,0.19120002 c 0,0.18651 0.00116,0.1932 0.050643,0.2651 0.2387863,0.34706 0.2387863,0.82393 0,1.17099 -0.049484,0.0719 -0.050643,0.0786 -0.050643,0.2651 l 0,0.1912 0.1390096,0 0.1384927,0 0.09095,-0.11988 C 7.1289087,2.68695 7.2260066,2.44934 7.2595047,2.16317 7.3052417,1.77245 7.1755187,1.34171 6.9205074,1.03663 l -0.065112,-0.0775 -0.1369426,0 -0.1369424,0 z M 6.1184895,1.42213 l 0,0.57878 0,0.57877 0.114205,0 0.1147216,0 0.058911,-0.0811 c 0.227453,-0.30986 0.227453,-0.68544 0,-0.99529 l -0.058911,-0.0811 -0.1147216,0 -0.114205,0 z m 0.8671528,7.7773137 q -0.0889,0 -0.193675,0.02223 -0.1016,0.02222 -0.225425,0.0635 -0.117475,0.0381 -0.2159,0.07938 -0.09525,0.0381 -0.168275,0.0762 -0.0254,0.01587 -0.041275,0.0508 -0.0127,0.03493 -0.00318,0.06668 l 0.117475,0.36195 q 0.015875,0.04763 0.05715,0.0635 0.041275,0.0127 0.08255,-0.0127 0.111125,-0.07302 0.288925,-0.14605 0.085725,-0.03492 0.155575,-0.0508 0.06985,-0.01905 0.127,-0.01905 0.073025,0 0.117475,0.05715 0.053975,0.06032 0.053975,0.127 0,0.0381 -0.022225,0.07303 -0.022225,0.03492 -0.05715,0.06668 -0.0762,0.06985 -0.20955,0.161925 -0.136525,0.1143 -0.200025,0.22225 -0.060325,0.104775 -0.060325,0.225425 l 0,0.117475 q 0,0.0381 0.028575,0.06668 0.03175,0.02858 0.06985,0.02858 l 0.441325,0 q 0.034925,0 0.060325,-0.02858 0.028575,-0.02858 0.028575,-0.0635 l 0.00635,-0.06985 q 0.00318,-0.02858 0.0127,-0.05397 0.00953,-0.0254 0.034925,-0.05398 0.0254,-0.03175 0.06985,-0.06668 0.04445,-0.03492 0.111125,-0.08255 l -0.00635,0.0063 q 0.073025,-0.04445 0.136525,-0.1016 0.0635,-0.05715 0.127,-0.127 0.13335,-0.155575 0.13335,-0.3873513 0,-0.276225 -0.23495,-0.47625 -0.111125,-0.09525 -0.263525,-0.14605 -0.1524,-0.0508 -0.3556,-0.0508 l -0.00317,0 z m -0.320675,1.8097503 q -0.0381,0 -0.066675,0.02858 -0.028575,0.02858 -0.028575,0.06985 l 0,0.498475 q 0,0.0381 0.028575,0.06668 0.03175,0.02858 0.06985,0.02858 l 0.479425,0 q 0.0381,0 0.0635,-0.02858 0.028575,-0.02858 0.028575,-0.06668 l 0,-0.498475 q 0,-0.04127 -0.028575,-0.06985 -0.028575,-0.02858 -0.066675,-0.02858 l -0.479425,0 z" />
	<path style="fill:#fff;fill-opacity:0.8" d="m 6.9856201,9.1994387 c -0.059267,0 -0.1239367,0.0074 -0.1937867,0.02222 -0.067733,0.01482 -0.1427593,0.03605 -0.2253093,0.06356 -0.078317,0.0254 -0.1503908,0.05155 -0.2160074,0.07906 -0.0635,0.0254 -0.1192652,0.05108 -0.1679483,0.07648 -0.016933,0.01058 -0.030758,0.02736 -0.041341,0.05064 -0.00847,0.02328 -0.00945,0.0455 -0.0031,0.06666 l 0.047025,0.146244 c 0.04816,-0.02501 0.1028224,-0.04991 0.1653646,-0.07493 0.065617,-0.02752 0.1376907,-0.05418 0.2160074,-0.07958 0.08255,-0.02752 0.157576,-0.04875 0.2253094,-0.06356 0.06985,-0.01482 0.13452,-0.02222 0.1937866,-0.02222 l 0.0031,0 c 0.1354667,0 0.2539344,0.01729 0.3555339,0.05116 0.1016,0.03387 0.1894665,0.08223 0.2635499,0.145727 0.1183915,0.100793 0.1922203,0.21636 0.2211752,0.3462323 0.0084,-0.04269 0.013952,-0.08687 0.013952,-0.1343583 0,-0.18415 -0.078494,-0.343107 -0.2351278,-0.476457 -0.074083,-0.0635 -0.1619499,-0.112378 -0.2635499,-0.146244 -0.1015997,-0.03387 -0.2200671,-0.05064 -0.3555338,-0.05064 l -0.0031,0 z m 0.084749,0.8655803 c -0.00448,0.0045 -0.00703,0.0095 -0.011885,0.01395 -0.0508,0.04657 -0.1203894,0.100364 -0.2092894,0.161748 -0.091017,0.0762 -0.1576546,0.150242 -0.1999879,0.222208 -0.040217,0.06985 -0.060461,0.145393 -0.060461,0.225826 l 0,0.117306 c 0,0.01672 0.00569,0.0315 0.013952,0.04547 0.00966,-0.04266 0.023894,-0.08423 0.046509,-0.123507 0.042333,-0.07197 0.1089713,-0.146525 0.199988,-0.222725 0.0889,-0.06138 0.1584894,-0.115181 0.2092894,-0.161747 0.023283,-0.02117 0.042544,-0.04338 0.057361,-0.06666 0.014817,-0.02328 0.02222,-0.04746 0.02222,-0.07286 0,-0.04445 -0.017761,-0.08691 -0.053743,-0.127123 -0.00404,-0.0052 -0.00954,-0.0074 -0.013952,-0.01189 z m -0.4056597,0.944128 c -0.0254,0 -0.047613,0.0094 -0.066663,0.02842 -0.01905,0.01905 -0.028422,0.04276 -0.028422,0.07028 l 0,0.264584 c 0,-0.02752 0.00937,-0.05071 0.028422,-0.06976 0.01905,-0.01905 0.041263,-0.02894 0.066663,-0.02894 l 0.4795572,0 c 0.0254,0 0.047613,0.0099 0.066663,0.02894 0.01905,0.01905 0.028939,0.04225 0.028939,0.06976 l 0,-0.264584 c 0,-0.02752 -0.00989,-0.05123 -0.028939,-0.07028 -0.01905,-0.01905 -0.041263,-0.02842 -0.066663,-0.02842 l -0.4795572,0 z M 5.8249674,9.1942697 c -0.058867,0 -0.080687,0.0184 -0.4092771,0.347266 l -0.3467489,0.347265 -0.2857709,0 -0.2852539,0 0,0.2645833 0.2852539,0 0.2857709,0 0.3467489,-0.3472653 c 0.32859,-0.32887 0.3504102,-0.347266 0.4092771,-0.347266 l 0.062012,0 0,-0.264583 -0.062012,0 z m 0.2604492,-3.9026031 0,0.2645833 0.3741375,0 0.5519044,0.5519048 0.5524209,-0.5519048 0.3736205,0 0,-0.2645833 -0.3736205,0 -0.5524209,0.5519041 -0.5519044,-0.5519041 -0.3741375,0 z m 0.419096,1.0583331 -0.419096,0.41858 0,0.264583 0.5513877,-0.550871 -0.1322917,-0.132292 z m 1.0133748,0 -0.1322919,0.132292 0.5519044,0.551904 0,-0.264583 -0.4196125,-0.419613 z m -1.69292,-1.3890633 c -0.058867,0 -0.080687,0.018396 -0.4092771,0.3472656 l -0.3467489,0.3472656 -0.2857709,0 -0.2852539,0 0,0.2645831 0.2852539,0 0.2857709,0 0.3467489,-0.3472654 C 5.7442803,5.2439154 5.7661005,5.2255197 5.8249674,5.2255197 l 0.062012,0 0,-0.2645833 -0.062012,0 z m 1.219564,-4.46484642 0,0.1488307 0,0.1157552 0.1725991,0 0.1720826,0 0.073381,0.086816 C 7.7673231,1.2079344 7.939447,1.6688835 7.965922,2.1425036 8.0002384,1.5788907 7.8239127,1.0102866 7.4625937,0.58290898 l -0.073381,-0.086819 -0.1720824,0 -0.1725993,0 z m -1.219564,0.231513 c -0.058867,0 -0.080687,0.018396 -0.4092771,0.34726562 l -0.3467489,0.3472656 -0.2857709,0 -0.2852539,0 0,0.2645833 0.2852539,0 0.2857709,0 0.3467489,-0.3472656 c 0.32859,-0.32887 0.3504102,-0.34726562 0.4092771,-0.34726562 l 0.062012,0 0,-0.2645833 -0.062012,0 z m 0.7565432,0.2315104 0,0.19120282 c 0,0.038943 0.00204,0.047886 0.00259,0.073381 l 0.1343589,0 0.1369425,0 0.065112,0.077515 C 7.1116716,1.5298922 7.2323552,1.8289568 7.2615853,2.1290678 7.2962497,1.7474783 7.1682014,1.3329376 6.920521,1.036628 l -0.065112,-0.077515 -0.1369425,0 -0.1369425,0 z m -0.4630211,0.46302082 0,0.2645833 0.114205,0 0.1147218,0 0.058911,0.081132 c 0.084367,0.1149287 0.1368663,0.2390454 0.1586466,0.3653524 0.03694,-0.2142206 -0.01556,-0.4350145 -0.1586466,-0.6299358 l -0.058911,-0.081132 -0.1147218,0 -0.1142047,0 z m 0.6831626,0.7110677 c -0.020135,0.1605679 -0.075748,0.3169415 -0.1694989,0.4532023 -0.049484,0.0719 -0.050643,0.0786 -0.050643,0.2651 l 0,0.1912028 0.00259,0 C 6.5861102,2.946104 6.5930102,2.9078748 6.6321592,2.8509875 6.7772017,2.6401883 6.8328145,2.3816051 6.8016651,2.1332019 Z m 0.6996986,0 c -0.025032,0.330852 -0.138117,0.656488 -0.3508825,0.9353432 l -0.1059368,0.1390097 0,0.1493449 0,0.1152385 0.1059368,-0.1390097 C 7.4199773,2.9799039 7.533061,2.5522903 7.5013507,2.1332019 Z" />
</svg>
