<svg xmlns="http://www.w3.org/2000/svg" width="16" height="96" viewBox="0 0 16 96">
	<defs>
		<g id="base">
			<path d="M10.625 45.25v-1.127l.4-.525c1.823-2.39 1.823-5.682 0-8.07l-.4-.526v-1.127h1.302l.277.328c.65.767 1.216 1.8 1.532 2.797.866 2.723.273 5.788-1.53 7.922l-.278.328h-1.302zm-1.75-1.75v-.723c0-.705.004-.73.19-1.002.903-1.312.903-3.114 0-4.426-.186-.273-.19-.298-.19-1.003v-.723h1.048l.344.45c.677.894 1.044 1.79 1.17 2.873.173 1.477-.317 3.105-1.28 4.258l-.247.294H8.874zm1.75-14.25v-1.127l.4-.525c1.823-2.39 1.823-5.682 0-8.07l-.4-.526v-1.127h1.302l.277.328c.65.767 1.216 1.8 1.532 2.797.866 2.723.273 5.788-1.53 7.922l-.278.328h-1.302zm-1.75 22.375v.723c0 .705.004.73.19 1.002.903 1.312.903 3.114 0 4.426-.186.272-.19.297-.19 1.002v.723h1.048l.344-.45c.677-.893 1.044-1.79 1.17-2.872.173-1.477-.317-3.105-1.28-4.258l-.247-.294H8.874zm1.75-1.75v1.127l.4.525c1.823 2.39 1.823 5.682 0 8.07l-.4.526v1.127h1.302l.277-.328c.65-.767 1.216-1.8 1.532-2.797.866-2.723.273-5.788-1.53-7.922l-.278-.328h-1.302zm-3.5 3.5v4.375h.866l.226-.307c.86-1.17.86-2.59 0-3.762l-.223-.304h-.865z" fill-opacity=".25"/>
			<path d="M6.015 50.75c-.22 0-.304.07-1.546 1.313l-1.314 1.312H1v4.375l1.078.002 1.078.002L4.5 59.06c1.18 1.15 1.368 1.31 1.547 1.312l.203.004V50.75h-.234zm1.11-45.375V9.75h.866l.226-.307c.86-1.17.86-2.59 0-3.762l-.223-.304h-.865zM6.015 2.75c-.22 0-.304.07-1.546 1.313L3.155 5.375H1V9.75l1.078.002 1.078.002L4.5 11.06c1.18 1.15 1.368 1.31 1.547 1.312l.203.004V2.75h-.234zm2.86 16.875v.723c0 .705.004.73.19 1.002.903 1.312.903 3.114 0 4.426-.186.272-.19.297-.19 1.002v.723h1.048l.344-.45c.677-.893 1.044-1.79 1.17-2.872.173-1.477-.317-3.105-1.28-4.258l-.247-.294H8.874zm-2.86-.875c-.22 0-.304.07-1.546 1.313l-1.314 1.312H1v4.375l1.078.002 1.078.002L4.5 27.06c1.18 1.15 1.368 1.31 1.547 1.312l.203.004V18.75h-.234zm1.11 2.625v4.375h.866l.226-.307c.86-1.17.86-2.59 0-3.762l-.223-.304h-.865zM6.015 82.75c-.22 0-.304.07-1.546 1.313l-1.314 1.312H1v4.375l1.078.002 1.078.002L4.5 91.06c1.18 1.15 1.368 1.31 1.547 1.312l.203.004V82.75h-.234zm1.11-45.375v4.375h.866l.226-.307c.86-1.17.86-2.59 0-3.762l-.223-.304h-.865zm-1.11-2.625c-.22 0-.304.07-1.546 1.313l-1.314 1.312H1v4.375l1.078.002 1.078.002L4.5 43.06c1.18 1.15 1.368 1.31 1.547 1.312l.203.004V34.75h-.234zm0 32c-.22 0-.304.07-1.546 1.313l-1.314 1.312H1v4.375l1.078.002 1.078.002L4.5 75.06c1.18 1.15 1.368 1.31 1.547 1.312l.203.004V66.75h-.234zM7 68v1.418L9.084 71.5 7 73.582V75h1.414l2.086-2.086L12.588 75H14v-1.414L11.914 71.5 14 69.414V68h-1.412L10.5 70.086 8.414 68H7zm3.403 14.77q-.336 0-.732.084-.38.084-.85.24-.443.144-.815.3-.36.144-.636.288-.097.06-.157.192-.047.132-.01.252l.443 1.368q.06.18.216.24.156.048.31-.048.42-.276 1.094-.552.324-.132.588-.192.265-.072.48-.072.277 0 .445.216.203.228.203.48 0 .144-.084.276-.085.132-.217.252-.29.264-.793.612-.516.432-.756.84-.226.396-.226.852v.444q0 .144.108.252.12.108.265.108h1.67q.13 0 .227-.108.11-.108.11-.24l.023-.264q.012-.108.048-.204.037-.096.133-.204.097-.12.265-.252.17-.132.42-.312l-.023.024q.276-.168.516-.384t.48-.48q.503-.588.503-1.464 0-1.044-.887-1.8-.42-.36-.996-.552-.577-.192-1.345-.192h-.012zM9.19 89.61q-.143 0-.25.108-.11.108-.11.264v1.884q0 .144.11.252.12.108.263.108h1.812q.144 0 .24-.108.108-.108.108-.252v-1.884q0-.156-.108-.264-.108-.108-.252-.108H9.19zm1.435-87.735v1.127l.4.525c1.823 2.39 1.823 5.682 0 8.07l-.4.526v1.127h1.302l.277-.328c.65-.767 1.216-1.8 1.532-2.797.866-2.723.273-5.788-1.53-7.922l-.278-.328h-1.302zm-1.75 1.75v.723c0 .705.004.73.19 1.002.903 1.312.903 3.114 0 4.426-.186.272-.19.297-.19 1.002v.723h1.048l.344-.45c.677-.893 1.044-1.79 1.17-2.872.173-1.477-.317-3.105-1.28-4.258l-.247-.294H8.874z"/>
		</g>
	</defs>
</svg>
