<?xml version="1.0" encoding="UTF-8" standalone="no"?>
<svg xmlns="http://www.w3.org/2000/svg" width="32" height="32" viewBox="0 0 8.4666666 8.4666666">
	<path style="fill:ButtonText;fill-opacity:0.8" d="m 1.8851561,1.42213 0,0.57878 0,0.57877 0.114205,0 0.1147216,0 0.058911,-0.0811 c 0.227453,-0.30986 0.227453,-0.68544 0,-0.99529 l -0.058911,-0.0811 -0.1147216,0 -0.114205,0 z m 0.463021,-0.46301996 0,0.19119996 c 0,0.18651 0.00116,0.1932 0.050643,0.2651 0.2387863,0.34706 0.2387863,0.82393 0,1.17099 -0.049484,0.0719 -0.050643,0.0786 -0.050643,0.2651 l 0,0.1912 0.1390096,0 0.1384927,0 0.09095,-0.11988 C 2.8955753,2.68695 2.9926732,2.44934 3.0261713,2.16317 3.0719083,1.77245 2.9421854,1.34171 2.687174,1.03663 l -0.065112,-0.0774999 -0.1369426,0 -0.1369424,0 z M 1.5916341,0.72760005 c -0.058867,0 -0.080687,0.0184 -0.4092773,0.34726995 l -0.3467489,0.34726 -0.28577066,0 -0.28525391,0 0,0.57878 0,0.57877 0.28525391,5.212e-4 0.2852539,5.212e-4 L 1.190625,2.92643 c 0.3122203,0.3038499 0.3620813,0.3460499 0.4092773,0.34675 l 0.053744,0.00101 0,-1.2733101 0,-1.27330996 -0.062012,0 z m 1.2195637,-0.23151 0,0.14883 0,0.14933999 0.1059369,0.13901 C 3.3994098,1.56535 3.3994098,2.43646 2.9171347,3.06854 l -0.1059369,0.1390101 0,0.1493498 0,0.14883 0.1725994,0 0.1720824,0 0.073381,-0.0868 C 3.400811,3.2160099 3.5506168,2.94253 3.6344037,2.67892 3.8634016,1.95844 3.7065746,1.14751 3.2292605,0.58293005 l -0.073381,-0.08684 -0.1720824,0 -0.1725994,0 z M 1.5916341,4.9609335 c -0.058867,0 -0.080687,0.0184 -0.4092773,0.3472699 l -0.34674891,0.34726 -0.28577066,0 -0.2852539,0 0,0.57878 0,0.57877 0.2852539,5.212e-4 0.28525391,5.213e-4 0.35553386,0.3457075 c 0.3122203,0.3038499 0.3620813,0.3460499 0.4092773,0.34675 l 0.053744,0.00101 0,-1.27331 0,-1.2733099 -0.062012,0 z m 0.2604492,0.3307332 0,0.3751709 0.5513875,0.5508708 -0.5513875,0.5508707 0,0.3751709 0.3741374,0 0.5519043,-0.5519043 0.5524211,0.5519043 0.3736205,0 0,-0.3741373 -0.5519044,-0.5519043 0.5519044,-0.5519043 0,-0.3741374 -0.3736205,0 L 2.778125,5.843571 2.2262207,5.2916667 l -0.3741374,0 z" />
	<path style="fill:ButtonText;fill-opacity:0.8" d="m 1.5916341,4.9609364 c -0.058867,0 -0.080687,0.018396 -0.4092773,0.3472656 l -0.34674891,0.3472656 -0.28577066,0 -0.2852539,0 0,0.2645833 0.2852539,0 0.28577066,0 L 1.1823568,5.5727853 C 1.510947,5.2439153 1.5327671,5.2255197 1.5916341,5.2255197 l 0.062012,0 0,-0.2645833 -0.062012,0 z M 3.2845539,6.35 3.1522622,6.4822917 l 0.5519044,0.5519044 0,-0.2645834 L 3.2845539,6.35 Z m -1.0133747,0 -0.4190959,0.4185791 0,0.2645833 L 2.4034708,6.4822917 2.2711792,6.35 Z m -0.4190959,-1.0583333 0,0.2645833 0.3741374,0 0.5519043,0.5519043 0.5524211,-0.5519043 0.3736205,0 0,-0.2645833 -0.3736205,0 L 2.778125,5.843571 2.2262207,5.2916667 l -0.3741374,0 z m 0.9591146,-4.79557665 0,0.14883062 0,0.1157552 0.1725993,0 0.1720824,0 0.073381,0.0868164 C 3.5339896,1.2079344 3.7061137,1.6688835 3.7325887,2.1425036 3.7669049,1.5788907 3.5905792,1.0102866 3.2292602,0.58290895 l -0.073381,-0.0868189 -0.1720824,0 -0.1725993,0 z M 1.5916341,0.72760297 c -0.058867,0 -0.080687,0.0183956 -0.4092773,0.34726563 l -0.3467489,0.3472656 -0.28577066,0 -0.28525391,0 0,0.2645833 0.28525391,0 0.28577066,0 0.3467489,-0.3472656 C 1.510947,1.0105819 1.5327671,0.99218629 1.5916341,0.99218629 l 0.062012,0 0,-0.26458332 -0.062012,0 z m 0.756543,0.2315104 0,0.19120283 c 0,0.038943 0.00205,0.047886 0.00258,0.073381 l 0.1343588,0 0.1369425,0 0.065112,0.077515 C 2.8783251,1.5298922 2.9990089,1.8289568 3.0282388,2.1290678 3.0629032,1.7474783 2.9348549,1.3329376 2.6871745,1.036628 l -0.065112,-0.0775147 -0.1369425,0 -0.1369425,0 z m -0.4630209,0.46302083 0,0.2645833 0.1142049,0 0.1147217,0 0.058911,0.081132 c 0.084367,0.1149287 0.1368664,0.2390454 0.1586468,0.3653524 0.03694,-0.2142206 -0.01556,-0.4350145 -0.1586467,-0.6299358 l -0.058911,-0.081132 -0.1147217,0 -0.1142049,0 z m 0.6831624,0.7110677 c -0.020135,0.1605679 -0.075748,0.3169415 -0.1694987,0.4532023 -0.049484,0.0719 -0.050643,0.0786 -0.050643,0.2651001 l 0,0.1912028 0.00258,0 c 0.00201,-0.096603 0.00891,-0.1348322 0.048059,-0.1917195 C 2.5438553,2.6401883 2.5994681,2.3816051 2.5683186,2.1332019 Z m 0.6996988,0 C 3.2429852,2.4640539 3.1299004,2.78969 2.9171347,3.0685452 l -0.1059368,0.1390096 0,0.1493449 0,0.1152385 0.1059368,-0.1390097 C 3.1866438,2.979904 3.2997275,2.5522903 3.2680174,2.1332019 Z" />
	<path style="fill:#fff;fill-opacity:0.8" d="m 6.0854167,5.2916667 0,0.3751709 0.5513875,0.5508708 -0.5513875,0.5508707 0,0.3751709 0.3741374,0 0.5519043,-0.5519043 0.5524211,0.5519043 0.3736205,0 0,-0.3741373 L 7.3855956,6.2177084 7.9375,5.6658041 l 0,-0.3741374 -0.3736205,0 -0.5524211,0.5519043 -0.5519043,-0.5519043 -0.3741374,0 z M 5.8249675,4.9609335 c -0.058867,0 -0.080687,0.0184 -0.4092773,0.3472699 l -0.3467489,0.34726 -0.2857707,0 -0.2852539,0 0,0.57878 0,0.57877 0.2852539,5.212e-4 0.2852539,5.213e-4 0.3555339,0.3457075 c 0.3122203,0.3038499 0.3620813,0.3460499 0.4092773,0.34675 l 0.053744,0.00101 0,-1.27331 0,-1.2733099 -0.062012,0 z m 1.2195637,-4.46484345 0,0.14883 0,0.14933999 0.1059369,0.13901 C 7.6327432,1.56535 7.6327432,2.43646 7.1504681,3.06854 l -0.1059369,0.1390101 0,0.1493498 0,0.14883 0.1725994,0 0.1720824,0 0.073381,-0.0868 C 7.6341444,3.2160099 7.7839502,2.94253 7.8677371,2.67892 8.096735,1.95844 7.939908,1.14751 7.4625939,0.58293005 l -0.073381,-0.08684 -0.1720824,0 -0.1725994,0 z m -1.2195637,0.23151 c -0.058867,0 -0.080687,0.0184 -0.4092773,0.34726995 l -0.3467489,0.34726 -0.2857707,0 -0.2852539,0 0,0.57878 0,0.57877 0.2852539,5.212e-4 0.2852539,5.212e-4 0.3555339,0.3457076 c 0.3122203,0.3038499 0.3620813,0.3460499 0.4092773,0.34675 l 0.053744,0.00101 0,-1.2733101 0,-1.27330996 -0.062012,0 z m 0.756543,0.23150999 0,0.19119996 c 0,0.18651 0.00116,0.1932 0.050643,0.2651 0.2387863,0.34706 0.2387863,0.82393 0,1.17099 -0.049484,0.0719 -0.050643,0.0786 -0.050643,0.2651 l 0,0.1912 0.1390096,0 0.1384927,0 0.09095,-0.11988 C 7.1289087,2.68695 7.2260066,2.44934 7.2595047,2.16317 7.3052417,1.77245 7.1755188,1.34171 6.9205074,1.03663 l -0.065112,-0.0774999 -0.1369426,0 -0.1369424,0 z M 6.1184895,1.42213 l 0,0.57878 0,0.57877 0.114205,0 0.1147216,0 0.058911,-0.0811 c 0.227453,-0.30986 0.227453,-0.68544 0,-0.99529 l -0.058911,-0.0811 -0.1147216,0 -0.114205,0 z" />
	<path style="fill:#fff;fill-opacity:0.8" d="m 6.0854167,5.2916667 0,0.2645833 0.3741374,0 0.5519043,0.5519043 0.5524211,-0.5519043 0.3736205,0 0,-0.2645833 -0.3736205,0 -0.5524211,0.5519043 -0.5519043,-0.5519043 -0.3741374,0 z M 6.5045126,6.35 6.0854167,6.7685791 l 0,0.2645833 L 6.6368042,6.4822917 6.5045126,6.35 Z m 1.0133747,0 L 7.3855956,6.4822917 7.9375,7.0341961 7.9375,6.7696127 7.5178873,6.35 Z M 5.8249675,4.9609364 c -0.058867,0 -0.080687,0.018396 -0.4092773,0.3472656 l -0.3467489,0.3472656 -0.2857707,0 -0.2852539,0 0,0.2645833 0.2852539,0 0.2857707,0 0.3467489,-0.3472656 C 5.7442804,5.2439153 5.7661005,5.2255197 5.8249675,5.2255197 l 0.062012,0 0,-0.2645833 -0.062012,0 z m 1.2195638,-4.46484635 0,0.14883062 0,0.1157552 0.1725993,0 0.1720824,0 0.073381,0.0868164 C 7.767323,1.2079344 7.9394471,1.6688835 7.9659221,2.1425036 8.0002383,1.5788907 7.8239126,1.0102866 7.4625936,0.58290895 l -0.073381,-0.0868189 -0.1720824,0 -0.1725993,0 z M 5.8249675,0.72760297 c -0.058867,0 -0.080687,0.0183956 -0.4092773,0.34726563 l -0.3467489,0.3472656 -0.2857707,0 -0.2852539,0 0,0.2645833 0.2852539,0 0.2857707,0 0.3467489,-0.3472656 C 5.7442804,1.0105819 5.7661005,0.99218629 5.8249675,0.99218629 l 0.062012,0 0,-0.26458332 -0.062012,0 z m 0.756543,0.2315104 0,0.19120283 c 0,0.038943 0.00205,0.047886 0.00258,0.073381 l 0.1343588,0 0.1369425,0 0.065112,0.077515 C 7.1116585,1.5298922 7.2323423,1.8289568 7.2615722,2.1290678 7.2962366,1.7474783 7.1681883,1.3329376 6.9205079,1.036628 l -0.065112,-0.0775147 -0.1369425,0 -0.1369425,0 z m -0.4630209,0.46302083 0,0.2645833 0.1142049,0 0.1147217,0 0.058911,0.081132 C 6.4906942,1.8827782 6.5431936,2.0068949 6.564974,2.1332019 6.601914,1.9189813 6.549414,1.6981874 6.4063273,1.5032661 l -0.058911,-0.081132 -0.1147217,0 -0.1142049,0 z M 6.801652,2.1332019 C 6.781517,2.2937698 6.725904,2.4501434 6.6321533,2.5864042 c -0.049484,0.0719 -0.050643,0.0786 -0.050643,0.2651001 l 0,0.1912028 0.00258,0 c 0.00201,-0.096603 0.00891,-0.1348322 0.048059,-0.1917195 C 6.7771887,2.6401883 6.8328015,2.3816051 6.801652,2.1332019 Z m 0.6996988,0 C 7.4763186,2.4640539 7.3632338,2.78969 7.1504681,3.0685452 l -0.1059368,0.1390096 0,0.1493449 0,0.1152385 0.1059368,-0.1390097 C 7.4199772,2.979904 7.5330609,2.5522903 7.5013508,2.1332019 Z" />
</svg>
